<svg width="8" height="13" viewBox="0 0 8 13" fill="red" xmlns="http://www.w3.org/2000/svg">
<path d="M7.49885 0.00270487L5.68339 0C3.64377 0 2.32568 1.25573 2.32568 3.19932V4.67442H0.500309C0.342575 4.67442 0.214844 4.79316 0.214844 4.93963V7.07688C0.214844 7.22335 0.34272 7.34196 0.500309 7.34196H2.32568V12.7349C2.32568 12.8814 2.45341 13 2.61114 13H4.99274C5.15047 13 5.2782 12.8813 5.2782 12.7349V7.34196H7.41249C7.57022 7.34196 7.69795 7.22335 7.69795 7.07688L7.69882 4.93963C7.69882 4.8693 7.66868 4.80195 7.61522 4.75218C7.56177 4.70241 7.48895 4.67442 7.41321 4.67442H5.2782V3.42396C5.2782 2.82294 5.43244 2.51783 6.27558 2.51783L7.49856 2.51742C7.65615 2.51742 7.78388 2.39868 7.78388 2.25234V0.267782C7.78388 0.121584 7.6563 0.00297535 7.49885 0.00270487Z" fill="red" />
</svg>
