<svg width="22" height="15" viewBox="0 0 22 15" fill="none" xmlns="http://www.w3.org/2000/svg">
<path d="M21.8657 7.00929L14.9907 0.134288C14.8117 -0.0447627 14.5216 -0.0447627 14.3426 0.134288C14.1636 0.313339 14.1636 0.603378 14.3426 0.782386L20.4353 6.87501H0.458348C0.205004 6.87501 0 7.08001 0 7.33336C0 7.5867 0.205004 7.79171 0.458348 7.79171H20.4353L14.3426 13.8843C14.1636 14.0633 14.1636 14.3534 14.3426 14.5324C14.4321 14.6219 14.5494 14.6667 14.6667 14.6667C14.784 14.6667 14.9012 14.6219 14.9908 14.5324L21.8658 7.65739C22.0448 7.47838 22.0448 7.18834 21.8657 7.00929Z" fill="white"/>
</svg>
