<svg width="14" height="14" viewBox="0 0 14 14" fill="none" xmlns="http://www.w3.org/2000/svg">
<path d="M9.40335 13.0133H9.40341C9.40341 13.0607 9.36483 13.0993 9.31739 13.0993H1.10393C1.0565 13.0993 1.01792 13.0607 1.01792 13.0133V0.986747C1.01792 0.939308 1.0565 0.900733 1.10393 0.900733H9.31739C9.36483 0.900733 9.40341 0.939308 9.40341 0.986747V1.82461L10.3033 0.95615C10.2871 0.426188 9.85121 0 9.31739 0H1.10393C0.559851 0 0.117188 0.442633 0.117188 0.986747V13.0133C0.117188 13.5573 0.559821 14 1.1039 14H9.31736C9.86145 14 10.3041 13.5574 10.3041 13.0133V8.77973L9.40335 9.68044V13.0133Z" fill="white"/>
<path d="M1.69141 10.5607C1.69141 10.8094 1.89305 11.0111 2.14177 11.0111H3.71677C3.54927 10.7445 3.4797 10.4272 3.52359 10.1104H2.14177V10.1104C1.89305 10.1104 1.69141 10.312 1.69141 10.5607Z" fill="white"/>
<path d="M4.0088 7.85059H2.14177C1.89305 7.85059 1.69141 8.05223 1.69141 8.30095C1.69141 8.54967 1.89305 8.75132 2.14177 8.75132H3.81367L4.0088 7.85059Z" fill="white"/>
<path d="M5.6383 5.58984H2.14177C1.89305 5.58984 1.69141 5.79149 1.69141 6.04021C1.69141 6.28893 1.89305 6.49058 2.14177 6.49058H4.73757L5.6383 5.58984Z" fill="white"/>
<path d="M7.89857 3.33008H2.14177C1.89305 3.33008 1.69141 3.53173 1.69141 3.78045C1.69141 4.02917 1.89305 4.23081 2.14177 4.23081H6.99784L7.89857 3.33008Z" fill="white"/>
<path d="M13.351 1.843C12.6136 1.08385 11.4132 1.08746 10.6777 1.82292C10.2626 2.23801 5.33068 7.16994 5.09987 7.40078C5.04036 7.46026 4.99671 7.53833 4.97816 7.62388L4.42035 10.1989C4.38841 10.3463 4.43224 10.5029 4.54206 10.6127C4.65116 10.7219 4.80744 10.7666 4.95587 10.7344L7.53092 10.1766C7.61565 10.1583 7.69555 10.1135 7.75402 10.0549L13.3319 4.47706C14.063 3.74594 14.0618 2.57451 13.351 1.843ZM5.44873 9.70604L5.68366 8.62148L6.53329 9.47111L5.44873 9.70604ZM12.6949 3.84015L7.43555 9.09954L6.05523 7.71919L11.3146 2.4598C11.708 2.06632 12.3517 2.0794 12.7285 2.49507C13.0743 2.87608 13.0666 3.46849 12.6949 3.84015Z" fill="white"/>
</svg>
