<svg width="16" height="15" viewBox="0 0 16 15" fill="none" xmlns="http://www.w3.org/2000/svg">
<g clip-path="url(#clip0_321_4558)">
<path d="M12.1454 0.0781196L10.1827 0.0751953C7.97759 0.0751953 6.55258 1.4328 6.55258 3.53405V5.12881H4.57913C4.4086 5.12881 4.27051 5.25718 4.27051 5.41553V7.72616C4.27051 7.88451 4.40876 8.01274 4.57913 8.01274H6.55258V13.8432C6.55258 14.0015 6.69067 14.1298 6.8612 14.1298H9.43599C9.60652 14.1298 9.74461 14.0014 9.74461 13.8432V8.01274H12.052C12.2226 8.01274 12.3607 7.88451 12.3607 7.72616L12.3616 5.41553C12.3616 5.3395 12.329 5.26669 12.2712 5.21288C12.2134 5.15907 12.1347 5.12881 12.0528 5.12881H9.74461V3.77691C9.74461 3.12713 9.91136 2.79727 10.8229 2.79727L12.1451 2.79683C12.3155 2.79683 12.4536 2.66846 12.4536 2.51025V0.3647C12.4536 0.206642 12.3156 0.078412 12.1454 0.0781196Z" fill="#484848"/>
</g>
<defs>
<clipPath id="clip0_321_4558">
<rect width="15.1357" height="14.0546" fill="white" transform="translate(0.794922 0.0751953)"/>
</clipPath>
</defs>
</svg>
