<svg width="15" height="15" viewBox="0 0 15 15" fill="none" xmlns="http://www.w3.org/2000/svg">
<g clip-path="url(#clip0_321_4561)">
<path d="M14.6908 4.26337C14.6574 3.50646 14.535 2.98609 14.3597 2.53518C14.1788 2.05656 13.9005 1.62804 13.5359 1.27182C13.1797 0.910048 12.7483 0.628937 12.2753 0.450879C11.8217 0.275538 11.3041 0.153137 10.5472 0.119764C9.78461 0.0835656 9.54252 0.0751953 7.60845 0.0751953C5.67437 0.0751953 5.43229 0.0835656 4.67255 0.116938C3.91564 0.15031 3.39527 0.272821 2.94447 0.448053C2.46574 0.628937 2.03722 0.907222 1.681 1.27182C1.31923 1.62804 1.03823 2.05938 0.860059 2.53247C0.684718 2.98609 0.562316 3.50363 0.528944 4.26055C0.492745 5.02311 0.484375 5.2652 0.484375 7.19927C0.484375 9.13335 0.492745 9.37543 0.526118 10.1352C0.55949 10.8921 0.682 11.4124 0.857341 11.8634C1.03823 12.342 1.31923 12.7705 1.681 13.1267C2.03722 13.4885 2.46856 13.7696 2.94165 13.9477C3.39527 14.123 3.91281 14.2454 4.66983 14.2788C5.42946 14.3123 5.67166 14.3205 7.60573 14.3205C9.53981 14.3205 9.78189 14.3123 10.5416 14.2788C11.2985 14.2454 11.8189 14.123 12.2697 13.9477C13.2271 13.5775 13.984 12.8206 14.3541 11.8634C14.5294 11.4097 14.6519 10.8921 14.6852 10.1352C14.7186 9.37543 14.727 9.13335 14.727 7.19927C14.727 5.2652 14.7242 5.02311 14.6908 4.26337ZM13.408 10.0795C13.3773 10.7752 13.2604 11.1509 13.163 11.4014C12.9237 12.022 12.4311 12.5145 11.8105 12.7539C11.5601 12.8513 11.1817 12.9681 10.4887 12.9987C9.73732 13.0322 9.51198 13.0404 7.61128 13.0404C5.71057 13.0404 5.4824 13.0322 4.73375 12.9987C4.03804 12.9681 3.66236 12.8513 3.4119 12.7539C3.10307 12.6397 2.82196 12.4588 2.59379 12.2223C2.35725 11.9913 2.17636 11.713 2.06222 11.4042C1.96482 11.1537 1.84797 10.7752 1.81742 10.0823C1.78394 9.33097 1.77568 9.10552 1.77568 7.20481C1.77568 5.30411 1.78394 5.07594 1.81742 4.3274C1.84797 3.63169 1.96482 3.25601 2.06222 3.00555C2.17636 2.69661 2.35725 2.41561 2.59662 2.18733C2.82751 1.95079 3.10579 1.7699 3.41473 1.65587C3.66518 1.55847 4.04369 1.44161 4.73658 1.41096C5.48795 1.37759 5.7134 1.36922 7.61399 1.36922C9.51752 1.36922 9.74287 1.37759 10.4915 1.41096C11.1872 1.44161 11.5629 1.55847 11.8134 1.65587C12.1222 1.7699 12.4033 1.95079 12.6315 2.18733C12.868 2.41833 13.0489 2.69661 13.163 3.00555C13.2604 3.25601 13.3773 3.63441 13.408 4.3274C13.4413 5.07877 13.4497 5.30411 13.4497 7.20481C13.4497 9.10552 13.4413 9.32814 13.408 10.0795Z" fill="#484848"/>
<path d="M7.60866 3.54004C5.58838 3.54004 3.94922 5.17909 3.94922 7.19948C3.94922 9.21986 5.58838 10.8589 7.60866 10.8589C9.62904 10.8589 11.2681 9.21986 11.2681 7.19948C11.2681 5.17909 9.62904 3.54004 7.60866 3.54004ZM7.60866 9.57326C6.298 9.57326 5.23487 8.51024 5.23487 7.19948C5.23487 5.88871 6.298 4.82569 7.60866 4.82569C8.91942 4.82569 9.98244 5.88871 9.98244 7.19948C9.98244 8.51024 8.91942 9.57326 7.60866 9.57326Z" fill="#484848"/>
<path d="M12.2664 3.39533C12.2664 3.8671 11.8838 4.24964 11.4119 4.24964C10.9401 4.24964 10.5576 3.8671 10.5576 3.39533C10.5576 2.92344 10.9401 2.54102 11.4119 2.54102C11.8838 2.54102 12.2664 2.92344 12.2664 3.39533Z" fill="#484848"/>
</g>
<defs>
<clipPath id="clip0_321_4561">
<rect width="14.2454" height="14.2454" fill="white" transform="translate(0.458984 0.0751953)"/>
</clipPath>
</defs>
</svg>
