<svg width="16" height="15" viewBox="0 0 16 15" fill="none" xmlns="http://www.w3.org/2000/svg">
<g clip-path="url(#clip0_321_4554)">
<path d="M15.6465 14.3206V14.32H15.6502V9.09548C15.6502 6.53963 15.0656 4.5708 11.8909 4.5708C10.3647 4.5708 9.34055 5.35904 8.92242 6.10633H8.87828V4.80941H5.86816V14.32H9.00251V9.61069C9.00251 8.37075 9.25225 7.17177 10.8838 7.17177C12.4913 7.17177 12.5153 8.58681 12.5153 9.69023V14.3206H15.6465Z" fill="#1FAEE9"/>
<path d="M0.764648 4.81006H3.90278V14.3206H0.764648V4.81006Z" fill="#1FAEE9"/>
<path d="M2.33122 0.0751953C1.32785 0.0751953 0.513672 0.841477 0.513672 1.78583C0.513672 2.73018 1.32785 3.51248 2.33122 3.51248C3.33459 3.51248 4.14876 2.73018 4.14876 1.78583C4.14813 0.841477 3.33396 0.0751953 2.33122 0.0751953V0.0751953Z" fill="#1FAEE9"/>
</g>
<defs>
<clipPath id="clip0_321_4554">
<rect width="15.1357" height="14.2454" fill="white" transform="translate(0.513672 0.0751953)"/>
</clipPath>
</defs>
</svg>
