<svg width="13" height="11" viewBox="0 0 13 11" fill="none" xmlns="http://www.w3.org/2000/svg">
<path d="M11.8396 10.607C12.1318 10.607 12.385 10.5105 12.6003 10.32L8.91719 6.63673C8.82882 6.70001 8.74317 6.76154 8.66226 6.82005C8.38664 7.02313 8.16293 7.18159 7.99116 7.29514C7.8194 7.40895 7.59089 7.52496 7.30563 7.64339C7.02018 7.76197 6.75426 7.82107 6.50757 7.82107H6.50034H6.49312C6.24641 7.82107 5.98048 7.76199 5.69506 7.64339C5.40964 7.52496 5.18112 7.40895 5.00953 7.29514C4.83778 7.18159 4.61419 7.02315 4.33843 6.82005C4.26158 6.76371 4.17635 6.7019 4.08421 6.63574L0.400391 10.32C0.61562 10.5105 0.86899 10.607 1.16119 10.607H11.8396Z" fill="#1FAEE9"/>
<path d="M0.732779 4.31725C0.457176 4.13351 0.212774 3.92307 0 3.68604V9.2898L3.24628 6.04352C2.59684 5.59012 1.76007 5.01536 0.732779 4.31725Z" fill="#1FAEE9"/>
<path d="M12.2744 4.31725C11.2863 4.98605 10.4465 5.5618 9.75488 6.04482L12.9999 9.28994V3.68604C12.7918 3.9183 12.55 4.1286 12.2744 4.31725Z" fill="#1FAEE9"/>
<path d="M11.8391 0.392578H1.16064C0.788103 0.392578 0.50169 0.518378 0.301047 0.769718C0.100239 1.02118 0 1.33565 0 1.71279C0 2.01743 0.133022 2.34751 0.398949 2.70312C0.664876 3.05859 0.947843 3.33781 1.24771 3.54091C1.4121 3.65705 1.90784 4.00169 2.73494 4.57471C3.18142 4.88411 3.5697 5.15379 3.90337 5.38651C4.18777 5.58467 4.43305 5.75628 4.63555 5.8987C4.6588 5.91501 4.69536 5.94116 4.74389 5.97586C4.79617 6.01341 4.86233 6.06106 4.94394 6.12C5.10111 6.23366 5.23168 6.32555 5.33567 6.39574C5.43952 6.46596 5.56534 6.54439 5.71295 6.63148C5.86044 6.71845 5.99955 6.78386 6.13012 6.82736C6.26071 6.87083 6.3816 6.89264 6.49282 6.89264H6.50004H6.50726C6.61845 6.89264 6.73937 6.87083 6.86998 6.82736C7.00052 6.78386 7.13952 6.7186 7.28713 6.63148C7.43459 6.54439 7.56025 6.46579 7.66443 6.39574C7.76842 6.32555 7.89899 6.23369 8.05618 6.12C8.13763 6.06106 8.20379 6.01338 8.25607 5.97598C8.30462 5.94114 8.34116 5.91515 8.36455 5.8987C8.5223 5.78893 8.76815 5.61802 9.09867 5.38851C9.7001 4.97064 10.5858 4.35559 11.7596 3.54091C12.1127 3.29433 12.4076 2.99678 12.6446 2.64867C12.8812 2.30056 12.9999 1.93541 12.9999 1.55334C12.9999 1.23412 12.8849 0.960968 12.6553 0.733466C12.4255 0.506247 12.1534 0.392578 11.8391 0.392578Z" fill="#1FAEE9"/>
</svg>
