<svg width="18" height="17" viewBox="0 0 18 17" fill="none" xmlns="http://www.w3.org/2000/svg">
<g clip-path="url(#clip0_949_6189)">
<path d="M13.2992 0.270028L10.9996 0.266602C8.41606 0.266602 6.74648 1.8572 6.74648 4.31907V6.18753H4.43434C4.23455 6.18753 4.07275 6.33794 4.07275 6.52347V9.23065C4.07275 9.41618 4.23473 9.56641 4.43434 9.56641H6.74648V16.3975C6.74648 16.583 6.90827 16.7333 7.10807 16.7333H10.1247C10.3245 16.7333 10.4863 16.5829 10.4863 16.3975V9.56641H13.1898C13.3896 9.56641 13.5514 9.41618 13.5514 9.23065L13.5525 6.52347C13.5525 6.43439 13.5143 6.34907 13.4466 6.28603C13.3789 6.22299 13.2866 6.18753 13.1907 6.18753H10.4863V4.60361C10.4863 3.84232 10.6817 3.45585 11.7497 3.45585L13.2988 3.45533C13.4984 3.45533 13.6602 3.30493 13.6602 3.11957V0.605792C13.6602 0.420608 13.4986 0.27037 13.2992 0.270028Z" fill="#B7B7B7"/>
</g>
<defs>
<clipPath id="clip0_949_6189">
<rect width="17.7333" height="16.4667" fill="white" transform="translate(0 0.266602)"/>
</clipPath>
</defs>
</svg>
