<svg width="17" height="17" viewBox="0 0 17 17" fill="none" xmlns="http://www.w3.org/2000/svg">
<g clip-path="url(#clip0_949_6192)">
<path d="M16.4509 5.10785C16.4124 4.23291 16.2709 3.6314 16.0682 3.11018C15.8591 2.55692 15.5374 2.06159 15.116 1.64981C14.7042 1.23163 14.2056 0.906689 13.6587 0.700866C13.1345 0.498184 12.5361 0.356696 11.6612 0.31812C10.7797 0.276277 10.4999 0.266602 8.26424 0.266602C6.02858 0.266602 5.74875 0.276277 4.87054 0.314853C3.9956 0.353429 3.39409 0.495043 2.873 0.697599C2.31961 0.90669 1.82428 1.22837 1.41251 1.64981C0.994329 2.06159 0.66951 2.56019 0.463561 3.10704C0.260879 3.6314 0.119392 4.22964 0.0808155 5.10458C0.0389723 5.98605 0.0292969 6.26589 0.0292969 8.50154C0.0292969 10.7372 0.0389723 11.017 0.0775485 11.8952C0.116125 12.7702 0.257738 13.3717 0.46042 13.8929C0.66951 14.4462 0.994329 14.9415 1.41251 15.3533C1.82428 15.7715 2.32288 16.0964 2.86973 16.3022C3.39409 16.5049 3.99234 16.6464 4.8674 16.685C5.74548 16.7237 6.02544 16.7332 8.2611 16.7332C10.4968 16.7332 10.7766 16.7237 11.6548 16.685C12.5297 16.6464 13.1312 16.5049 13.6523 16.3022C14.759 15.8744 15.6339 14.9994 16.0618 13.8929C16.2643 13.3686 16.4059 12.7702 16.4445 11.8952C16.4831 11.017 16.4928 10.7372 16.4928 8.50154C16.4928 6.26589 16.4895 5.98605 16.4509 5.10785ZM14.9681 11.8309C14.9326 12.6351 14.7976 13.0694 14.685 13.3589C14.4083 14.0762 13.8389 14.6456 13.1216 14.9223C12.8321 15.0349 12.3947 15.1699 11.5936 15.2053C10.7251 15.244 10.4646 15.2535 8.26751 15.2535C6.07042 15.2535 5.80667 15.244 4.94129 15.2053C4.13709 15.1699 3.70283 15.0349 3.41332 14.9223C3.05633 14.7903 2.73139 14.5812 2.46764 14.3078C2.19421 14.0408 1.98512 13.7191 1.85318 13.3621C1.7406 13.0726 1.60552 12.6351 1.57021 11.8342C1.53151 10.9656 1.52196 10.705 1.52196 8.50795C1.52196 6.31087 1.53151 6.04712 1.57021 5.18186C1.60552 4.37767 1.7406 3.9434 1.85318 3.65389C1.98512 3.29678 2.19421 2.97196 2.4709 2.70808C2.7378 2.43466 3.05947 2.22557 3.41658 2.09375C3.70609 1.98117 4.14363 1.84609 4.94455 1.81065C5.81308 1.77208 6.07369 1.7624 8.27065 1.7624C10.471 1.7624 10.7315 1.77208 11.5969 1.81065C12.4011 1.84609 12.8353 1.98117 13.1248 2.09375C13.4818 2.22557 13.8068 2.43466 14.0705 2.70808C14.3439 2.9751 14.553 3.29678 14.685 3.65389C14.7976 3.9434 14.9326 4.38081 14.9681 5.18186C15.0066 6.05039 15.0163 6.31087 15.0163 8.50795C15.0163 10.705 15.0066 10.9624 14.9681 11.8309Z" fill="#B7B7B7"/>
<path d="M8.26424 4.27148C5.92894 4.27148 4.03418 6.16611 4.03418 8.50154C4.03418 10.837 5.92894 12.7316 8.26424 12.7316C10.5997 12.7316 12.4943 10.837 12.4943 8.50154C12.4943 6.16611 10.5997 4.27148 8.26424 4.27148ZM8.26424 11.2455C6.74921 11.2455 5.5203 10.0167 5.5203 8.50154C5.5203 6.98639 6.74921 5.75761 8.26424 5.75761C9.77939 5.75761 11.0082 6.98639 11.0082 8.50154C11.0082 10.0167 9.77939 11.2455 8.26424 11.2455Z" fill="#B7B7B7"/>
<path d="M13.649 4.10422C13.649 4.64957 13.2068 5.09175 12.6614 5.09175C12.116 5.09175 11.6738 4.64957 11.6738 4.10422C11.6738 3.55875 12.116 3.1167 12.6614 3.1167C13.2068 3.1167 13.649 3.55875 13.649 4.10422Z" fill="#B7B7B7"/>
</g>
<defs>
<clipPath id="clip0_949_6192">
<rect width="16.4667" height="16.4667" fill="white" transform="translate(0 0.266602)"/>
</clipPath>
</defs>
</svg>
