<svg width="18" height="17" viewBox="0 0 18 17" fill="none" xmlns="http://www.w3.org/2000/svg">
<g clip-path="url(#clip0_949_6185)">
<path d="M17.7289 16.7334V16.7328H17.7334V10.6936C17.7334 7.73921 17.0484 5.46338 13.3289 5.46338C11.5407 5.46338 10.3408 6.37453 9.8509 7.23835H9.79918V5.7392H6.27246V16.7328H9.94474V11.2891C9.94474 9.85586 10.2373 8.46992 12.1488 8.46992C14.0323 8.46992 14.0603 10.1056 14.0603 11.3811V16.7334H17.7289Z" fill="#484848"/>
<path d="M0.29248 5.73975H3.96919V16.7333H0.29248V5.73975Z" fill="#484848"/>
<path d="M2.12948 0.266602C0.953906 0.266602 0 1.15237 0 2.24397C0 3.33558 0.953906 4.23987 2.12948 4.23987C3.30505 4.23987 4.25896 3.33558 4.25896 2.24397C4.25822 1.15237 3.30431 0.266602 2.12948 0.266602V0.266602Z" fill="#484848"/>
</g>
<defs>
<clipPath id="clip0_949_6185">
<rect width="17.7333" height="16.4667" fill="white" transform="translate(0 0.266602)"/>
</clipPath>
</defs>
</svg>
