<svg width="14" height="13" viewBox="0 0 13 11" fill="none" xmlns="http://www.w3.org/2000/svg">
<path d="M11.8377 10.6071C12.1299 10.6071 12.3831 10.5106 12.5983 10.3201L8.91524 6.63686C8.82687 6.70013 8.74122 6.76166 8.66031 6.82017C8.38468 7.02325 8.16098 7.18171 7.9892 7.29526C7.81745 7.40907 7.58893 7.52508 7.30368 7.64351C7.01823 7.76209 6.7523 7.82119 6.50561 7.82119H6.49839H6.49117C6.24446 7.82119 5.97853 7.76212 5.69311 7.64351C5.40768 7.52508 5.17917 7.40907 5.00758 7.29526C4.83582 7.18171 4.61224 7.02327 4.33647 6.82017C4.25962 6.76384 4.1744 6.70202 4.08225 6.63586L0.398438 10.3201C0.613666 10.5106 0.867037 10.6071 1.15923 10.6071H11.8377Z" fill="#1FAEE9"/>
<path d="M0.732779 4.31768C0.457176 4.13394 0.212774 3.9235 0 3.68646V9.29022L3.24628 6.04395C2.59684 5.59055 1.76007 5.01579 0.732779 4.31768Z" fill="#1FAEE9"/>
<path d="M12.2735 4.31768C11.2853 4.98647 10.4455 5.56223 9.75391 6.04525L12.9989 9.29037V3.68646C12.7908 3.91873 12.5491 4.12903 12.2735 4.31768Z" fill="#1FAEE9"/>
<path d="M11.8391 0.392822H1.16064C0.788103 0.392822 0.50169 0.518622 0.301047 0.769963C0.100239 1.02142 0 1.3359 0 1.71304C0 2.01767 0.133022 2.34775 0.398949 2.70337C0.664876 3.05884 0.947843 3.33805 1.24771 3.54115C1.4121 3.6573 1.90784 4.00194 2.73494 4.57495C3.18142 4.88436 3.5697 5.15403 3.90337 5.38675C4.18777 5.58492 4.43305 5.75653 4.63555 5.89894C4.6588 5.91525 4.69536 5.94141 4.74389 5.9761C4.79617 6.01365 4.86233 6.06131 4.94394 6.12024C5.10111 6.23391 5.23168 6.32579 5.33567 6.39598C5.43952 6.4662 5.56534 6.54463 5.71295 6.63172C5.86044 6.7187 5.99955 6.7841 6.13012 6.8276C6.26071 6.87107 6.3816 6.89288 6.49282 6.89288H6.50004H6.50726C6.61845 6.89288 6.73937 6.87107 6.86998 6.8276C7.00052 6.7841 7.13952 6.71884 7.28713 6.63172C7.43459 6.54463 7.56025 6.46604 7.66443 6.39598C7.76842 6.32579 7.89899 6.23393 8.05618 6.12024C8.13763 6.06131 8.20379 6.01363 8.25607 5.97622C8.30462 5.94138 8.34116 5.9154 8.36455 5.89894C8.5223 5.78917 8.76815 5.61827 9.09867 5.38876C9.7001 4.97088 10.5858 4.35583 11.7596 3.54115C12.1127 3.29458 12.4076 2.99702 12.6446 2.64891C12.8812 2.3008 12.9999 1.93565 12.9999 1.55358C12.9999 1.23436 12.8849 0.961212 12.6553 0.73371C12.4255 0.506491 12.1534 0.392822 11.8391 0.392822Z" fill="#1FAEE9"/>
</svg>
