<svg width="72" height="72" viewBox="0 0 72 72" fill="none" xmlns="http://www.w3.org/2000/svg">
<mask id="mask0_321_2789" style="mask-type:alpha" maskUnits="userSpaceOnUse" x="0" y="0" width="72" height="72">
<circle cx="35.5123" cy="35.5123" r="35.0123" transform="rotate(-90 35.5123 35.5123)" stroke="#757575"/>
</mask>
<g mask="url(#mask0_321_2789)">
<rect x="13.4648" y="95.9495" width="69.4636" height="81.9514" transform="rotate(-110.826 13.4648 95.9495)" fill="white"/>
</g>
<g clip-path="url(#clip0_321_2789)">
<path d="M35.6773 25.1588L28.8023 32.0338C28.6232 32.2129 28.6232 32.5029 28.8023 32.6819C28.9813 32.861 29.2713 32.861 29.4504 32.6819L35.543 26.5893L35.543 46.5662C35.543 46.8195 35.748 47.0245 36.0013 47.0245C36.2547 47.0245 36.4597 46.8195 36.4597 46.5662L36.4597 26.5893L42.5523 32.6819C42.7313 32.861 43.0213 32.861 43.2004 32.6819C43.2899 32.5924 43.3346 32.4751 43.3346 32.3578C43.3346 32.2406 43.2899 32.1233 43.2004 32.0338L36.3254 25.1588C36.1463 24.9798 35.8563 24.9798 35.6773 25.1588Z" fill="white"/>
</g>
<defs>
<clipPath id="clip0_321_2789">
<rect width="22" height="22" fill="white" transform="translate(25 47.0245) rotate(-90)"/>
</clipPath>
</defs>
</svg>
