<svg width="11" height="11" viewBox="0 0 11 11" fill="none" xmlns="http://www.w3.org/2000/svg">
<g clip-path="url(#clip0_321_2834)">
<path d="M5.27865 6.76514C4.33542 5.98955 3.70562 5.03249 3.37451 4.48793L3.12752 4.02231C3.21388 3.92965 3.87244 3.22446 4.15783 2.84184C4.51647 2.36138 3.99649 1.92746 3.99649 1.92746C3.99649 1.92746 2.53338 0.464145 2.19993 0.17388C1.86649 -0.116792 1.48265 0.0446471 1.48265 0.0446471C0.781832 0.497469 0.0553057 0.891161 0.0117202 2.78454C0.0100947 4.55722 1.35576 6.38557 2.81094 7.80104C4.26847 9.39958 6.26964 11.0018 8.20437 10.9999C10.0975 10.9568 10.4911 10.2303 10.944 9.52952C10.944 9.52952 11.1055 9.14599 10.8151 8.81224C10.5246 8.47859 9.06104 7.01518 9.06104 7.01518C9.06104 7.01518 8.62742 6.4951 8.14686 6.85404C7.78873 7.12175 7.14562 7.71722 6.99068 7.86159C6.99098 7.8621 5.91516 7.28858 5.27865 6.76514Z" fill="white"/>
</g>
<defs>
<clipPath id="clip0_321_2834">
<rect width="11" height="11" fill="white"/>
</clipPath>
</defs>
</svg>
