<svg width="22" height="16" viewBox="0 0 22 16" fill="none" xmlns="http://www.w3.org/2000/svg">
<path d="M21.8657 7.67597L14.9907 0.800975C14.8117 0.621924 14.5216 0.621924 14.3426 0.800975C14.1636 0.980026 14.1636 1.27006 14.3426 1.44907L20.4353 7.5417H0.458348C0.205004 7.5417 0 7.7467 0 8.00005C0 8.25339 0.205004 8.45839 0.458348 8.45839H20.4353L14.3426 14.551C14.1636 14.73 14.1636 15.0201 14.3426 15.1991C14.4321 15.2886 14.5494 15.3333 14.6667 15.3333C14.784 15.3333 14.9012 15.2886 14.9908 15.1991L21.8658 8.32407C22.0448 8.14506 22.0448 7.85503 21.8657 7.67597Z" fill="white"/>
</svg>
