<svg width="17" height="17" viewBox="0 0 17 17" fill="none" xmlns="http://www.w3.org/2000/svg">
<g clip-path="url(#clip0_321_5816)">
<path d="M16.449 5.10785C16.4104 4.23291 16.2689 3.6314 16.0662 3.11018C15.8571 2.55692 15.5355 2.06159 15.114 1.64981C14.7022 1.23163 14.2036 0.906689 13.6568 0.700866C13.1326 0.498184 12.5342 0.356696 11.6592 0.31812C10.7778 0.276277 10.4979 0.266602 8.26229 0.266602C6.02663 0.266602 5.74679 0.276277 4.86859 0.314853C3.99365 0.353429 3.39214 0.495043 2.87105 0.697599C2.31766 0.90669 1.82233 1.22837 1.41056 1.64981C0.992376 2.06159 0.667557 2.56019 0.461608 3.10704C0.258926 3.6314 0.117439 4.22964 0.0788624 5.10458C0.0370192 5.98605 0.0273438 6.26589 0.0273438 8.50154C0.0273438 10.7372 0.0370192 11.017 0.0755954 11.8952C0.114172 12.7702 0.255785 13.3717 0.458467 13.8929C0.667557 14.4462 0.992376 14.9415 1.41056 15.3533C1.82233 15.7715 2.32093 16.0964 2.86778 16.3022C3.39214 16.5049 3.99038 16.6464 4.86545 16.685C5.74353 16.7237 6.02349 16.7332 8.25914 16.7332C10.4948 16.7332 10.7746 16.7237 11.6528 16.685C12.5278 16.6464 13.1293 16.5049 13.6504 16.3022C14.757 15.8744 15.632 14.9994 16.0598 13.8929C16.2624 13.3686 16.404 12.7702 16.4426 11.8952C16.4811 11.017 16.4908 10.7372 16.4908 8.50154C16.4908 6.26589 16.4876 5.98605 16.449 5.10785ZM14.9661 11.8309C14.9307 12.6351 14.7956 13.0694 14.683 13.3589C14.4063 14.0762 13.837 14.6456 13.1196 14.9223C12.8301 15.0349 12.3927 15.1699 11.5916 15.2053C10.7231 15.244 10.4626 15.2535 8.26555 15.2535C6.06847 15.2535 5.80472 15.244 4.93933 15.2053C4.13514 15.1699 3.70087 15.0349 3.41136 14.9223C3.05438 14.7903 2.72943 14.5812 2.46568 14.3078C2.19226 14.0408 1.98317 13.7191 1.85123 13.3621C1.73864 13.0726 1.60356 12.6351 1.56825 11.8342C1.52955 10.9656 1.52 10.705 1.52 8.50795C1.52 6.31087 1.52955 6.04712 1.56825 5.18186C1.60356 4.37767 1.73864 3.9434 1.85123 3.65389C1.98317 3.29678 2.19226 2.97196 2.46895 2.70808C2.73584 2.43466 3.05752 2.22557 3.41463 2.09375C3.70414 1.98117 4.14167 1.84609 4.9426 1.81065C5.81113 1.77208 6.07174 1.7624 8.26869 1.7624C10.469 1.7624 10.7295 1.77208 11.5949 1.81065C12.3991 1.84609 12.8334 1.98117 13.1229 2.09375C13.4799 2.22557 13.8048 2.43466 14.0686 2.70808C14.342 2.9751 14.5511 3.29678 14.683 3.65389C14.7956 3.9434 14.9307 4.38081 14.9661 5.18186C15.0047 6.05039 15.0144 6.31087 15.0144 8.50795C15.0144 10.705 15.0047 10.9624 14.9661 11.8309Z" fill="#B7B7B7"/>
<path d="M8.26521 4.27148C5.92991 4.27148 4.03516 6.16611 4.03516 8.50154C4.03516 10.837 5.92991 12.7316 8.26521 12.7316C10.6006 12.7316 12.4953 10.837 12.4953 8.50154C12.4953 6.16611 10.6006 4.27148 8.26521 4.27148ZM8.26521 11.2455C6.75019 11.2455 5.52128 10.0167 5.52128 8.50154C5.52128 6.98639 6.75019 5.75761 8.26521 5.75761C9.78037 5.75761 11.0091 6.98639 11.0091 8.50154C11.0091 10.0167 9.78037 11.2455 8.26521 11.2455Z" fill="#B7B7B7"/>
<path d="M13.651 4.10422C13.651 4.64957 13.2088 5.09175 12.6633 5.09175C12.118 5.09175 11.6758 4.64957 11.6758 4.10422C11.6758 3.55875 12.118 3.1167 12.6633 3.1167C13.2088 3.1167 13.651 3.55875 13.651 4.10422Z" fill="#B7B7B7"/>
</g>
<defs>
<clipPath id="clip0_321_5816">
<rect width="16.4667" height="16.4667" fill="white" transform="translate(0 0.266602)"/>
</clipPath>
</defs>
</svg>
